<?xml version="1.0" encoding="UTF-8"?>
<svg id="Calque_1" data-name="Calque 1" xmlns="http://www.w3.org/2000/svg" viewBox="0 0 139.08105 120.13528">
  <path d="M64.14306,78.52887c0,7.51639-6.94501,9.8913-11.86742,9.8913-5.90835,0-9.50999-2.16807-11.52437-5.07686-1.65103-2.38411.21764-5.6496,3.11762-5.6496h0c1.28111,0,2.43192.69369,3.13265,1.76618.87363,1.33711,2.37104,1.97145,5.23028,1.97145,3.03213,0,4.39484-.96749,4.39484-2.59488,0-1.80086-1.84557-1.93319-6.98883-3.03123-5.01003-1.05512-10.15329-2.90247-10.15329-9.27432,0-6.76886,6.02223-10.02185,11.86742-10.02185,5.19981,0,8.46974,1.74155,10.37221,4.27795,1.82795,2.43705.10306,5.91916-2.94336,5.91916h-.04027c-1.18406,0-2.37873-.49473-3.02332-1.48796-.66947-1.03156-1.90353-1.72032-4.36527-1.72032-3.33972,0-4.35103,1.36271-4.35103,2.68072,0,1.45034,1.40653,1.6256,4.43955,2.2855,8.61443,1.84557,12.70257,3.78055,12.70257,10.06477Z" fill="#1d1d1b" stroke-width="0"/>
  <path d="M65.7835,72.63355c0-9.05436,6.72505-15.95556,15.95556-15.95556,5.06577,0,9.3228,2.13146,12.08275,5.54834,1.90793,2.36206.29002,5.87915-2.74635,5.87915h-.4416c-1.11811,0-2.11151-.59101-2.79298-1.47744-1.37545-1.78914-3.49942-2.83067-6.10181-2.83067-5.09855,0-8.39536,3.69292-8.39536,8.83618,0,5.14147,3.2968,8.83439,8.39536,8.83439,2.60239,0,4.72636-1.04153,6.10181-2.83067.68147-.88643,1.67488-1.47744,2.79298-1.47744h.44199c3.03624,0,4.65405,3.5167,2.74652,5.87892-2.75993,3.41781-7.0172,5.55035-12.0833,5.55035-9.23051,0-15.95556-6.9012-15.95556-15.95556Z" fill="#1d1d1b" stroke-width="0"/>
  <path d="M127.57098,72.63355c0,9.05436-6.98883,15.95556-16.08611,15.95556-9.09907,0-16.08789-6.9012-16.08789-15.95556s6.98883-15.95556,16.08789-15.95556c9.09728,0,16.08611,6.9012,16.08611,15.95556ZM102.95808,72.63355c0,5.14147,3.6035,8.83439,8.5268,8.83439,4.92151,0,8.5268-3.69292,8.5268-8.83439,0-5.14326-3.60529-8.83618-8.5268-8.83618-4.9233,0-8.5268,3.69292-8.5268,8.83618Z" fill="#1d1d1b" stroke-width="0"/>
  <path d="M34.27573,76.62378h-.44205c-1.11805,0-2.11147.59105-2.79294,1.4775-1.37546,1.78912-4.57535,3.36666-7.17772,3.36666-5.09855,0-8.39536-3.69292-8.39536-8.83439,0-.85469.02413-4.37489,2.8515-6.86673,1.88198-1.65865,4.71693-1.95388,5.85804-1.95388,5.0878,0,5.9252,3.23792,6.24954,3.92413l-7.05088,2.17135c-1.74195.69276-2.52429,2.56414-1.78279,4.25144.62514,1.57195,2.54391,2.28471,4.28598,1.59196.83437-.33174,3.95085-1.30011,7.25903-2.43671,3.16098-1.08602,3.89572-3.05663,4.02645-5.27772.16618-2.8234-1.26977-5.02281-1.84189-5.87649-3.62855-5.41432-10.56815-5.4804-11.45964-5.4829-2.35904-.00662-7.15514.49663-11.12707,4.27683-4.53962,4.32047-4.82849,9.90061-4.82849,11.67873,0,9.05436,6.72505,15.95556,15.95556,15.95556,5.06614,0,10.3993-2.66854,13.15916-6.08639,1.9076-2.36217.28971-5.87894-2.74644-5.87894Z" fill="#1d1d1b" stroke-width="0"/>
  <path d="M134.73633,64.35645c-.50879,0-.98633-.09521-1.43066-.28564-.44531-.18994-.83594-.45361-1.17383-.7915-.33691-.3374-.60059-.72852-.79102-1.17334s-.28516-.92188-.28516-1.43115.09473-.98633.28516-1.43115.4541-.83594.79102-1.17334c.33789-.3374.72852-.60156,1.17383-.7915.44434-.19043.92188-.28564,1.43066-.28564.50977,0,.98633.09521,1.43164.28564.44531.18994.83594.4541,1.17383.7915.33691.3374.60059.72852.79102,1.17334s.28516.92188.28516,1.43115-.09473.98633-.28516,1.43115-.4541.83594-.79102,1.17334c-.33789.33789-.72852.60156-1.17383.7915-.44531.19043-.92188.28564-1.43164.28564ZM134.73633,63.6709c.55273,0,1.05469-.13525,1.50781-.40527.45215-.27002.81348-.63135,1.08398-1.0835.26953-.45264.4043-.95508.4043-1.50732s-.13477-1.05469-.4043-1.50732c-.27051-.45215-.63184-.81348-1.08398-1.0835-.45312-.27002-.95508-.40479-1.50781-.40479-.55176,0-1.05371.13477-1.50684.40479-.45215.27002-.81348.63135-1.08398,1.0835-.26953.45264-.4043.95508-.4043,1.50732s.13477,1.05469.4043,1.50732c.27051.45215.63184.81348,1.08398,1.0835.45312.27002.95508.40527,1.50684.40527ZM133.48926,62.33154v-3.39648h1.62988c.17188,0,.33789.04102.49902.12207.16113.08154.29395.20117.40039.35889.10547.1582.1582.35205.1582.58252,0,.22998-.05371.42871-.16309.5957-.1084.16748-.24707.29541-.41406.38428s-.33984.1333-.51758.1333h-1.26074v-.46484h1.10449c.15625,0,.29688-.05566.4209-.16797.12402-.11182.18652-.27197.18652-.48047,0-.21484-.0625-.36816-.18652-.46045-.12402-.0918-.25977-.13818-.40723-.13818h-.85645v2.93164h-.59375ZM135.46875,60.75293l.84668,1.57861h-.66309l-.82324-1.57861h.63965Z" fill="#1d1d1b" stroke-width="0"/>
</svg>